<svg data-v-fde0c5aa="" xmlns="http://www.w3.org/2000/svg" viewBox="0 0 300 300" class="iconAbove"><!----><defs data-v-fde0c5aa=""><!----></defs><rect data-v-fde0c5aa="" fill="#D2EAF5" x="0" y="0" width="300px" height="300px" class="logo-background-square"></rect><defs data-v-fde0c5aa=""><!----></defs><g data-v-fde0c5aa="" id="620a5396-27bb-4d92-861a-b2b1f2835728" fill="#022239" transform="matrix(6.941580210033806,0,0,6.941580210033806,62.11959477267225,185.30859204123124)"><path d="M4.80 3.28L4.80 8.09L4.92 10.07L5.72 10.22L5.72 10.57L4.23 10.53L2.75 10.57L2.75 10.22L3.55 10.07L3.55 10.07Q3.57 9.98 3.60 9.79L3.60 9.79L3.60 9.79Q3.63 9.59 3.63 9.25L3.63 9.25L3.67 8.09L3.67 3.28L3.55 1.93L3.55 1.93Q2.62 1.93 1.81 2.05L1.81 2.05L1.81 2.05Q1.58 2.09 1.32 2.13L1.32 2.13L1.32 2.13Q1.06 2.18 0.97 2.23L0.97 2.23L0.48 3.11L0.12 2.99L0.38 2.14L0.38 2.14Q0.39 2.11 0.45 1.84L0.45 1.84L0.45 1.84Q0.51 1.57 0.56 1.27L0.56 1.27L7.91 1.27L7.91 1.27Q7.97 1.66 8.00 1.79L8.00 1.79L8.00 1.79Q8.03 1.93 8.10 2.14L8.10 2.14L8.38 2.98L8.01 3.11L7.57 2.25L7.57 2.25Q7.51 2.22 7.19 2.16L7.19 2.16L7.19 2.16Q6.87 2.10 6.70 2.06L6.70 2.06L6.70 2.06Q6.27 1.99 5.87 1.96L5.87 1.96L5.87 1.96Q5.47 1.93 4.93 1.93L4.93 1.93L4.80 3.28ZM12.30 6.12L11.13 6.12L11.13 8.09L11.25 10.07L12.05 10.22L12.05 10.57L10.57 10.53L9.06 10.57L9.06 10.22L9.88 10.07L9.96 9.25L10.01 8.09L10.01 3.72L9.89 1.74L9.09 1.60L9.09 1.24L10.57 1.27L13.86 1.20L13.86 1.20Q15.08 1.20 15.79 1.80L15.79 1.80L15.79 1.80Q16.49 2.39 16.49 3.44L16.49 3.44L16.49 3.44Q16.49 4.31 15.75 5.06L15.75 5.06L15.75 5.06Q15.41 5.43 14.83 5.67L14.83 5.67L14.83 5.67Q14.25 5.91 13.48 6.01L13.48 6.01L15.23 8.15L15.23 8.15Q15.82 8.84 17.04 10.07L17.04 10.07L17.71 10.22L17.71 10.56L17.71 10.56Q17.47 10.56 17.32 10.56L17.32 10.56L17.32 10.56Q17.17 10.56 16.76 10.60L16.76 10.60L16.76 10.60Q16.55 10.60 16.35 10.63L16.35 10.63L16.35 10.63Q16.16 10.66 15.85 10.74L15.85 10.74L15.85 10.74Q14.41 8.71 13.82 7.97L13.82 7.97L13.82 7.97Q13.32 7.33 12.94 6.87L12.94 6.87L12.94 6.87Q12.62 6.49 12.30 6.12L12.30 6.12ZM11.14 2.00L11.14 5.47L12.50 5.55L12.50 5.55Q13.73 5.55 14.46 5.02L14.46 5.02L14.46 5.02Q15.19 4.48 15.19 3.55L15.19 3.55L15.19 3.55Q15.19 2.69 14.55 2.27L14.55 2.27L14.55 2.27Q13.92 1.85 12.74 1.85L12.74 1.85L11.91 1.88L11.91 1.88Q11.49 1.92 11.14 2.00L11.14 2.00ZM25.20 7.90L25.20 7.90L25.20 7.90Q25.20 9.13 24.13 9.94L24.13 9.94L24.13 9.94Q23.07 10.76 21.41 10.76L21.41 10.76L21.41 10.76Q20.43 10.76 19.62 10.56L19.62 10.56L19.62 10.56Q18.80 10.35 18.03 9.88L18.03 9.88L18.03 9.88Q18.24 9.48 18.44 8.98L18.44 8.98L18.77 8.07L19.12 8.17L19.04 9.13L19.04 9.13Q19.17 9.25 19.41 9.37L19.41 9.37L19.41 9.37Q19.65 9.50 20.09 9.67L20.09 9.67L20.09 9.67Q20.92 10.02 21.79 10.02L21.79 10.02L21.79 10.02Q22.81 10.02 23.39 9.51L23.39 9.51L23.39 9.51Q23.98 9.01 23.98 8.09L23.98 8.09L23.98 8.09Q23.98 7.32 23.28 6.91L23.28 6.91L23.28 6.91Q22.98 6.73 22.54 6.55L22.54 6.55L22.54 6.55Q22.09 6.37 21.59 6.23L21.59 6.23L21.59 6.23Q19.98 5.81 19.10 5.25L19.10 5.25L19.10 5.25Q18.30 4.69 18.30 3.77L18.30 3.77L18.30 3.77Q18.30 2.55 19.32 1.81L19.32 1.81L19.32 1.81Q20.34 1.06 21.92 1.06L21.92 1.06L21.92 1.06Q22.81 1.06 23.52 1.22L23.52 1.22L23.52 1.22Q24.23 1.38 24.89 1.66L24.89 1.66L24.52 2.53L24.52 2.53Q24.34 3.00 24.25 3.38L24.25 3.38L23.85 3.30L23.93 2.50L23.93 2.50Q23.85 2.38 23.14 2.09L23.14 2.09L23.14 2.09Q22.44 1.79 21.63 1.79L21.63 1.79L21.63 1.79Q20.65 1.79 20.02 2.20L20.02 2.20L20.02 2.20Q19.42 2.63 19.42 3.35L19.42 3.35L19.42 3.35Q19.42 4.12 20.23 4.50L20.23 4.50L20.23 4.50Q21.03 4.89 22.14 5.18L22.14 5.18L22.14 5.18Q23.82 5.64 24.51 6.31L24.51 6.31L24.51 6.31Q25.20 6.99 25.20 7.90Z"></path></g><defs data-v-fde0c5aa=""><linearGradient data-v-fde0c5aa="" gradientTransform="rotate(25)" id="cca531b5-706e-48e6-a6b7-f8172562357a" x1="0%" y1="0%" x2="100%" y2="0%"><stop data-v-fde0c5aa="" offset="0%" stop-color="#000A68" stop-opacity="1"></stop><stop data-v-fde0c5aa="" offset="100%" stop-color="#00C4EE" stop-opacity="1"></stop></linearGradient></defs><g data-v-fde0c5aa="" id="2b76dc05-4229-4f87-8411-899066992e54" stroke="none" fill="url(#cca531b5-706e-48e6-a6b7-f8172562357a)" transform="matrix(4.208333333333333,0,0,4.208333333333333,82.66666666666667,40)"><path d="M16 1c8.271 0 15 6.729 15 15s-6.729 15-15 15S1 24.271 1 16 7.729 1 16 1m0-1C7.163 0 0 7.163 0 16s7.163 16 16 16 16-7.163 16-16S24.837 0 16 0z"></path><path d="M16 7.045L24.955 16 16 24.955 7.045 16 16 7.045m0-1.414L5.631 16 16 26.369 26.369 16 16 5.631z"></path><path d="M16 12.538L19.462 16 16 19.462 12.538 16 16 12.538m0-1.414L11.124 16 16 20.876 20.876 16 16 11.124z"></path></g><!----></svg>